<svg xmlns="http://www.w3.org/2000/svg" viewBox="0 0 51.97 99.44"><defs><style>.cls-1{fill:#3a63a8;}.cls-2{opacity:0.35;}.cls-3{fill:#f15a24;}.cls-4{opacity:0.4;}.cls-5,.cls-6{fill:#fff;}.cls-6{fill-rule:evenodd;}</style></defs><g id="Capa_2" data-name="Capa 2"><g id="DESIGNED_BY_FREEPIK" data-name="DESIGNED BY FREEPIK"><path class="cls-1" d="M8.11,0H43.86A8.11,8.11,0,0,1,52,8.11V93.47a6,6,0,0,1-6,6H6a6,6,0,0,1-6-6V8.11A8.11,8.11,0,0,1,8.11,0Z"/><path class="cls-2" d="M52,12.32V10.56a7.29,7.29,0,0,0-7.29-7.29H7.29A7.29,7.29,0,0,0,0,10.56v1.76a26,26,0,0,0,26,26h0A26,26,0,0,0,52,12.32Z"/><path class="cls-3" d="M52,9.06V7.29A7.29,7.29,0,0,0,44.68,0H7.29A7.29,7.29,0,0,0,0,7.29V9.06A26,26,0,0,0,26,35h0A26,26,0,0,0,52,9.06Z"/><path class="cls-3" d="M32.12,86.14a1,1,0,1,0-1,1A1,1,0,0,0,32.12,86.14Z"/><path class="cls-3" d="M27.48,86.14a1,1,0,1,0-1,1A1,1,0,0,0,27.48,86.14Z"/><path class="cls-3" d="M22.84,86.14a1,1,0,1,0-1,1A1,1,0,0,0,22.84,86.14Z"/><g class="cls-4"><path d="M7.47,48.73H4.88v-2.1h7.56v2.1H9.86v6.52H7.47Z"/><path d="M12.56,46.63H15v8.62h-2.4Z"/><path d="M15.55,46.63h6.93v2H17.91V50h4.14v1.88H17.91v1.37h4.63v2h-7Z"/><path d="M22.78,46.63H25l3.55,4.56V46.63h2.37v8.62h-2.1l-3.68-4.73v4.73H22.78Z"/><path d="M31.46,46.63h3.32c3.08,0,4.87,1.78,4.87,4.26v0c0,2.49-1.82,4.33-4.92,4.33H31.46Zm3.36,6.5A2.1,2.1,0,0,0,37.19,51v0a2.11,2.11,0,0,0-2.37-2.18h-1v4.38Z"/><path d="M42.25,46.57h2.31l3.67,8.68H45.67L45,53.71H41.71l-.61,1.54H38.59Zm2.1,5.28-1-2.45-1,2.45Z"/><path d="M4.86,56.92h2.3l1.69,4.69,1.68-4.69h2.26l-3,7.47H7.87Z"/><path d="M12.7,56.92h2.07v7.41H12.7Z"/><path d="M15.28,56.92h3.5a3.24,3.24,0,0,1,2.42.8,2.34,2.34,0,0,1,.66,1.73v0a2.35,2.35,0,0,1-1.53,2.28l1.77,2.58H19.73l-1.5-2.24h-.9v2.24h-2Zm3.41,3.56c.7,0,1.1-.34,1.1-.88v0c0-.59-.42-.88-1.11-.88H17.33v1.78Z"/><path d="M23.86,58.72H21.63v-1.8h6.51v1.8H25.91v5.61H23.86Z"/><path d="M28.09,61.08V56.92h2.09V61c0,1.07.54,1.58,1.37,1.58s1.37-.49,1.37-1.53V56.92H35V61c0,2.39-1.36,3.44-3.47,3.44S28.09,63.4,28.09,61.08Z"/><path d="M37.65,56.87h2l3.16,7.46H40.58L40,63H37.18l-.53,1.32H34.49Zm1.8,4.54-.83-2.11-.83,2.11Z"/><path d="M42.66,56.92h2.06v5.61h3.59v1.8H42.66Z"/></g><path class="cls-5" d="M7.3,48.29H4.71V46.2h7.56v2.09H9.69v6.53H7.3Z"/><path class="cls-5" d="M12.38,46.2h2.41v8.62H12.38Z"/><path class="cls-5" d="M15.38,46.2h6.93v2H17.74v1.3h4.14v1.89H17.74v1.36h4.63v2h-7Z"/><path class="cls-5" d="M22.61,46.2h2.22l3.55,4.55V46.2h2.36v8.62H28.65L25,50.09v4.73H22.61Z"/><path class="cls-5" d="M31.29,46.2h3.32c3.08,0,4.86,1.77,4.86,4.26v0c0,2.49-1.81,4.34-4.91,4.34H31.29Zm3.36,6.5A2.11,2.11,0,0,0,37,50.52v0a2.11,2.11,0,0,0-2.37-2.18h-1V52.7Z"/><path class="cls-5" d="M42.08,46.13h2.31l3.67,8.69H45.49l-.62-1.54H41.54l-.61,1.54H38.41Zm2.1,5.29-1-2.45-1,2.45Z"/><path class="cls-5" d="M4.69,56.48H7l1.69,4.69,1.68-4.69h2.26L9.61,64H7.7Z"/><path class="cls-5" d="M12.53,56.48H14.6V63.9H12.53Z"/><path class="cls-5" d="M15.11,56.48h3.5a3.24,3.24,0,0,1,2.42.81A2.29,2.29,0,0,1,21.68,59v0a2.34,2.34,0,0,1-1.52,2.28l1.77,2.59H19.56l-1.5-2.25h-.9V63.9H15.11ZM18.52,60c.7,0,1.1-.34,1.1-.88v0c0-.58-.42-.88-1.11-.88H17.16V60Z"/><path class="cls-5" d="M23.69,58.28H21.46v-1.8H28v1.8H25.74V63.9h-2Z"/><path class="cls-5" d="M27.92,60.64V56.48H30V60.6c0,1.07.54,1.58,1.37,1.58s1.36-.49,1.36-1.53V56.48h2.09v4.11c0,2.4-1.37,3.44-3.47,3.44S27.92,63,27.92,60.64Z"/><path class="cls-5" d="M37.48,56.43h2l3.16,7.47H40.41l-.54-1.33H37l-.53,1.33H34.32ZM39.28,61l-.83-2.11L37.62,61Z"/><path class="cls-5" d="M42.49,56.48h2.06V62.1h3.59v1.8H42.49Z"/><path class="cls-6" d="M31.92,9.69a9.45,9.45,0,0,0-4.73,1.19c.13.18.27.32.41.5a4.82,4.82,0,0,1,1,3v.31a3,3,0,0,1,2.27-1,1.8,1.8,0,0,1,1.83,2.4,3.11,3.11,0,0,1-3,2.38,1.9,1.9,0,0,1-1.77-1,8.62,8.62,0,0,1-3.23,3.7,7.23,7.23,0,0,0,4,1.17c4,0,7.78-2.33,8.77-6.24S35.83,9.73,31.92,9.69Z"/><path class="cls-6" d="M22.36,9.61a11.47,11.47,0,0,0-1.64.14,8.62,8.62,0,0,0-7.13,6.15c-1,4,1.65,6.33,5.6,6.37a11.59,11.59,0,0,0,1.55-.14A8.44,8.44,0,0,0,27.92,16C28.92,12.15,26.32,9.65,22.36,9.61ZM23.19,16a3.13,3.13,0,0,1-2.46,2.32,3.73,3.73,0,0,1-.59,0A1.78,1.78,0,0,1,18.32,16a3.16,3.16,0,0,1,2.41-2.27,2.82,2.82,0,0,1,.64-.09A1.82,1.82,0,0,1,23.19,16Z"/><g class="cls-4"><path d="M8.57,70.42V67.15L7.16,69.29h0L5.74,67.17v3.25H4.65v-5H5.84l1.31,2.13L8.47,65.4H9.66v5Z"/><path d="M13.88,70.42l-.46-1.12H11.3l-.46,1.12H9.72l2.15-5h1l2.15,5Zm-1.52-3.73-.66,1.63H13Z"/><path d="M17.37,66.42v4H16.26v-4H14.74v-1h4.15v1Z"/><path d="M19,70.42v-5H22.8v1H20.11v1h2.37v1H20.11v1h2.72v1Z"/><path d="M26.15,70.42l-1.07-1.6h-.87v1.6h-1.1v-5H25.4a2,2,0,0,1,1.39.44,1.55,1.55,0,0,1,.5,1.22h0a1.59,1.59,0,0,1-.3,1,1.75,1.75,0,0,1-.77.56l1.22,1.79Zm0-3.3a.63.63,0,0,0-.23-.54,1,1,0,0,0-.63-.18h-1.1v1.44h1.12a.89.89,0,0,0,.62-.19.65.65,0,0,0,.22-.52Z"/><path d="M27.62,70.42v-5h1.1v5Z"/><path d="M33,70.42l-.45-1.12H30.41L30,70.42H28.83l2.15-5h1l2.15,5Zm-1.52-3.73-.66,1.63h1.33Z"/><path d="M34.21,70.42v-5h1.1v4h2.5v1Z"/><path d="M43.79,68.9a2.48,2.48,0,0,1-.55.8,2.72,2.72,0,0,1-.85.53,2.92,2.92,0,0,1-1.08.19h-2v-5h2a3.14,3.14,0,0,1,1.08.19,2.72,2.72,0,0,1,.85.53,2.55,2.55,0,0,1,.55.79,2.68,2.68,0,0,1,.19,1h0A2.64,2.64,0,0,1,43.79,68.9Zm-1-1a1.54,1.54,0,0,0-.12-.61,1.5,1.5,0,0,0-.3-.48,1.59,1.59,0,0,0-.48-.31,1.75,1.75,0,0,0-.62-.11h-.85v3h.85a1.75,1.75,0,0,0,.62-.1,1.42,1.42,0,0,0,.48-.31,1.35,1.35,0,0,0,.3-.47,1.54,1.54,0,0,0,.12-.61Z"/><path d="M44.24,70.42v-5H48v1H45.33v1H47.7v1H45.33v1h2.73v1Z"/><path d="M4.65,78V71.33h5v1.31H6.1V74H9.27v1.31H6.1v1.41H9.75V78Z"/><path d="M15.37,78V73.66l-1.89,2.87h0l-1.87-2.84V78H10.11V71.33h1.6l1.76,2.84,1.76-2.84h1.6V78Z"/><path d="M22.58,74.7a2.1,2.1,0,0,1-.58.74,2.69,2.69,0,0,1-.86.44,3.62,3.62,0,0,1-1.06.15H19v2H17.48V71.33h2.74a3.31,3.31,0,0,1,1.08.17,2.3,2.3,0,0,1,.81.47,2,2,0,0,1,.5.74,2.39,2.39,0,0,1,.18.94v0A2.4,2.4,0,0,1,22.58,74.7Zm-1.28-1a.92.92,0,0,0-.33-.76,1.35,1.35,0,0,0-.87-.26H19v2.06h1.17a1.18,1.18,0,0,0,.86-.3,1,1,0,0,0,.31-.72Z"/><path d="M27.92,78l-.61-1.5H24.47L23.86,78H22.35l2.88-6.76h1.36L29.47,78Zm-2-5L25,75.23h1.78Z"/><path d="M35.54,78.25l-.74-.67a3.57,3.57,0,0,1-.93.43,3.67,3.67,0,0,1-3.62-.86,3.38,3.38,0,0,1-1-2.44v0a3.57,3.57,0,0,1,.26-1.35,3.36,3.36,0,0,1,.75-1.1,3.29,3.29,0,0,1,1.13-.75,3.75,3.75,0,0,1,1.43-.27,3.68,3.68,0,0,1,1.43.27,3.52,3.52,0,0,1,1.13.74,3.29,3.29,0,0,1,.74,1.09,3.57,3.57,0,0,1,.26,1.35v0a3.38,3.38,0,0,1-.15,1,3.54,3.54,0,0,1-.44.92l.69.58Zm-.7-3.56a2.25,2.25,0,0,0-.15-.82,2.11,2.11,0,0,0-.42-.67,2,2,0,0,0-.65-.45,1.85,1.85,0,0,0-.82-.17,1.9,1.9,0,0,0-1.45.61,2.28,2.28,0,0,0-.41.67,2.16,2.16,0,0,0-.15.81v0a2.16,2.16,0,0,0,.15.81,2,2,0,0,0,.42.67,1.94,1.94,0,0,0,.64.46,2,2,0,0,0,.82.17,2.21,2.21,0,0,0,.89-.18l-1.1-.93.94-1.06,1.11,1a2.25,2.25,0,0,0,.18-.92Z"/><path d="M42.28,76.45a2.69,2.69,0,0,1-.59,1,2.44,2.44,0,0,1-.93.56,3.63,3.63,0,0,1-1.22.19,2.67,2.67,0,0,1-2.91-3V71.33h1.48v3.8a1.8,1.8,0,0,0,.38,1.24,1.38,1.38,0,0,0,1.07.42,1.42,1.42,0,0,0,1.06-.4A1.69,1.69,0,0,0,41,75.18V71.33h1.48v3.79A4,4,0,0,1,42.28,76.45Z"/><path d="M43,78V71.33h5v1.31H44.49V74h3.16v1.31H44.49v1.41h3.64V78Z"/></g><path class="cls-5" d="M8.93,70.22V66.94L7.52,69.09h0L6.09,67v3.25H5v-5H6.19l1.32,2.12L8.83,65.2H10v5Z"/><path class="cls-5" d="M14.24,70.22l-.46-1.13H11.66l-.46,1.13H10.08l2.15-5h1l2.15,5Zm-1.52-3.73-.67,1.63h1.34Z"/><path class="cls-5" d="M17.72,66.22v4h-1.1v-4H15.09v-1h4.16v1Z"/><path class="cls-5" d="M19.38,70.22v-5h3.77v1H20.47v1h2.36v1H20.47v1.06h2.72v1Z"/><path class="cls-5" d="M26.51,70.22l-1.08-1.61h-.86v1.61H23.46v-5h2.29a2.06,2.06,0,0,1,1.4.44,1.55,1.55,0,0,1,.5,1.22h0a1.59,1.59,0,0,1-.3,1,1.78,1.78,0,0,1-.78.56l1.23,1.79Zm0-3.3a.65.65,0,0,0-.23-.54,1,1,0,0,0-.64-.18H24.57v1.44h1.11a1,1,0,0,0,.63-.19.65.65,0,0,0,.22-.52Z"/><path class="cls-5" d="M28,70.22v-5h1.1v5Z"/><path class="cls-5" d="M33.35,70.22l-.46-1.13H30.77l-.46,1.13H29.19l2.15-5h1l2.15,5Zm-1.52-3.73-.67,1.63H32.5Z"/><path class="cls-5" d="M34.56,70.22v-5h1.11v4h2.5v1Z"/><path class="cls-5" d="M44.14,68.7a2.34,2.34,0,0,1-.55.8,2.56,2.56,0,0,1-.84.53,3.14,3.14,0,0,1-1.08.19h-2v-5h2a3.14,3.14,0,0,1,1.08.19,2.56,2.56,0,0,1,.84.53,2.3,2.3,0,0,1,.55.79,2.5,2.5,0,0,1,.2,1h0A2.54,2.54,0,0,1,44.14,68.7Zm-1-1a1.74,1.74,0,0,0-.11-.61,1.52,1.52,0,0,0-.31-.48,1.38,1.38,0,0,0-.47-.31,1.8,1.8,0,0,0-.62-.11h-.85v3h.85a1.79,1.79,0,0,0,.62-.1,1.54,1.54,0,0,0,.47-.31,1.42,1.42,0,0,0,.31-.48,1.64,1.64,0,0,0,.11-.6Z"/><path class="cls-5" d="M44.6,70.22v-5h3.78v1H45.69v1h2.36v1H45.69v1.06h2.72v1Z"/><path class="cls-5" d="M5,77.84V71.13h5.06v1.31H6.46v1.37H9.63v1.31H6.46v1.41H10.1v1.31Z"/><path class="cls-5" d="M15.73,77.84V73.46l-1.89,2.87h0l-1.87-2.84v4.35H10.47V71.13h1.59L13.83,74l1.76-2.84h1.59v6.71Z"/><path class="cls-5" d="M22.94,74.5a2.09,2.09,0,0,1-.58.73,2.57,2.57,0,0,1-.87.45,3.62,3.62,0,0,1-1.06.15H19.31v2H17.83V71.13h2.75a3.31,3.31,0,0,1,1.08.17,2.35,2.35,0,0,1,.8.47,2.13,2.13,0,0,1,.51.74,2.39,2.39,0,0,1,.18.94v0A2.4,2.4,0,0,1,22.94,74.5Zm-1.29-1a.9.9,0,0,0-.32-.76,1.38,1.38,0,0,0-.88-.26H19.31v2.06h1.17a1.21,1.21,0,0,0,.87-.3,1,1,0,0,0,.3-.72Z"/><path class="cls-5" d="M28.28,77.84l-.61-1.5H24.83l-.62,1.5h-1.5l2.87-6.76H27l2.87,6.76Zm-2-5L25.35,75h1.79Z"/><path class="cls-5" d="M35.89,78l-.73-.66a3.57,3.57,0,0,1-.93.43,3.74,3.74,0,0,1-1.07.15,3.54,3.54,0,0,1-1.43-.28A3.6,3.6,0,0,1,30.6,77a3.31,3.31,0,0,1-.73-1.1,3.38,3.38,0,0,1-.27-1.34v0a3.4,3.4,0,0,1,1-2.45,3.29,3.29,0,0,1,1.13-.75A3.68,3.68,0,0,1,33.18,71a3.72,3.72,0,0,1,1.43.28,3.63,3.63,0,0,1,1.13.74,3.45,3.45,0,0,1,.74,1.09,3.57,3.57,0,0,1,.26,1.35v0a3.28,3.28,0,0,1-.6,1.92l.69.59Zm-.7-3.55a2.25,2.25,0,0,0-.14-.82,2,2,0,0,0-.43-.67,2.14,2.14,0,0,0-.64-.46,2.18,2.18,0,0,0-1.64,0,1.81,1.81,0,0,0-.63.45,1.84,1.84,0,0,0-.41.67,2.16,2.16,0,0,0-.15.81v0a2.2,2.2,0,0,0,.15.81,1.86,1.86,0,0,0,.42.67,2,2,0,0,0,.64.46,2.1,2.1,0,0,0,1.7,0L33,75.48l.94-1,1.1,1a2.25,2.25,0,0,0,.18-.92Z"/><path class="cls-5" d="M42.63,76.25a2.55,2.55,0,0,1-.59,1,2.3,2.3,0,0,1-.93.56,3.59,3.59,0,0,1-1.22.19,2.94,2.94,0,0,1-2.13-.75A3,3,0,0,1,37,75V71.13h1.47v3.8a1.76,1.76,0,0,0,.39,1.24,1.36,1.36,0,0,0,1.06.42A1.41,1.41,0,0,0,41,76.18a1.69,1.69,0,0,0,.38-1.2V71.13h1.48v3.79A3.83,3.83,0,0,1,42.63,76.25Z"/><path class="cls-5" d="M43.38,77.84V71.13h5.06v1.31h-3.6v1.37H48v1.31H44.84v1.41h3.65v1.31Z"/></g></g></svg>